PathFileType        4      (X/Y/Z)      C:\Users\aurel\Documents\opensim-MSc\data\transformed_83_35.trc
DataRate	CameraRate	NumFrames	NumMarkers	Units	OrigDataRate	OrigDataStartFrame	OrigNumFrames
120.0	120.0	4	41	mm	120.0	918	1048
Frame#	Time	LFWT			RFWT			LBWT			RBWT			LTHI			LKNE			LSHN			LANK			LHEE			LMT5			LTOE			RTHI			RKNE			RSHN			RANK			RHEE			RMT5			RTOE			CLAV			STRN			C7			T10			RBAC			LFHD			RFHD			LBHD			RBHD			LSHO			LUPA			LELB			LFRM			LWRA			LWRB			LFIN			RSHO			RUPA			RELB			RFRM			RWRA			RWRB			RFIN
		X1	Y1	Z1	X2	Y2	Z2	X3	Y3	Z3	X4	Y4	Z4	X5	Y5	Z5	X6	Y6	Z6	X7	Y7	Z7	X8	Y8	Z8	X9	Y9	Z9	X10	Y10	Z10	X11	Y11	Z11	X12	Y12	Z12	X13	Y13	Z13	X14	Y14	Z14	X15	Y15	Z15	X16	Y16	Z16	X17	Y17	Z17	X18	Y18	Z18	X19	Y19	Z19	X20	Y20	Z20	X21	Y21	Z21	X22	Y22	Z22	X23	Y23	Z23	X24	Y24	Z24	X25	Y25	Z25	X26	Y26	Z26	X27	Y27	Z27	X28	Y28	Z28	X29	Y29	Z29	X30	Y30	Z30	X31	Y31	Z31	X32	Y32	Z32	X33	Y33	Z33	X34	Y34	Z34	X35	Y35	Z35	X36	Y36	Z36	X37	Y37	Z37	X38	Y38	Z38	X39	Y39	Z39	X40	Y40	Z40	X41	Y41	Z41
918	7.642	1204.6632100000002	1373.0413799999997	386.63723999999996	1214.2821000000001	1371.90295	651.3297099999999	1042.5639600000002	1452.1106	439.72692999999987	1050.0484600000002	1456.7063	580.2313199999999	1116.6948200000002	1083.3000499999998	357.95809999999994	1103.3299600000003	932.6835299999999	392.08675999999997	1058.56702	699.8392299999999	392.0423599999999	1024.98169	572.0801399999999	426.88469999999995	966.8214100000001	561.0027499999999	473.14950999999996	1120.25452	525.1989699999999	402.71374999999995	1164.1123	545.9130199999998	488.78927999999996	1132.0946000000001	1164.62659	691.4539199999999	1112.8588900000002	939.2554899999999	658.1717499999999	1078.77441	830.4492799999999	684.11267	1043.17444	557.1653399999999	625.94653	972.6692500000001	518.8248299999999	584.935	1147.78503	528.5496799999999	648.53662	1180.56348	543.8721299999999	568.35925	1205.2911400000003	1808.5186799999997	487.12563999999986	1224.1257300000002	1630.7062999999998	491.7814299999999	1075.5935100000002	1886.87769	487.99752999999987	1004.6152300000002	1672.59766	502.4177599999999	1014.2618400000002	1763.66101	576.1825599999999	1279.8774400000002	2062.01904	417.7011099999999	1256.5632300000002	2048.10059	574.4617299999999	1134.9631300000003	2006.40405	425.0639299999999	1118.7608600000003	2006.83374	532.2667799999999	1110.8875700000003	1873.9111299999997	345.17516999999987	1069.4676500000003	1656.6845699999997	266.7285199999999	1049.3697500000003	1559.31506	263.6047399999999	1049.1794400000003	1392.01196	250.4415899999999	1173.9713100000001	1295.3532699999998	265.95138999999995	1042.9273700000003	1287.7354699999999	206.17345999999992	1128.3320300000003	1228.9206499999998	225.65223999999992	1123.7031300000003	1871.67273	639.4351199999999	1101.1879900000001	1760.09375	716.8820799999999	1051.8743900000002	1565.97144	730.7477399999999	1048.7464600000003	1488.99304	726.5618299999999	1240.6397700000002	1333.16699	765.1063799999998	1104.2287600000002	1294.8042	800.3184799999999	1143.7507300000002	1263.69092	793.5383299999999
919	7.65	1205.1059600000003	1372.8284899999999	386.6506999999999	1214.6497800000002	1371.86462	651.5084799999998	1042.6877400000003	1452.54858	439.6435499999999	1050.1777300000003	1456.77454	580.3351399999999	1116.9194300000001	1083.2081299999998	358.01339999999993	1103.5174600000003	932.6579599999999	392.04467999999997	1058.84338	699.7573199999999	392.00197999999995	1025.0874	572.1189599999999	426.90334999999993	967.4404900000001	560.7311399999999	473.0602099999999	1120.27417	525.1944599999999	402.79619999999994	1163.95349	545.8386799999998	488.75298999999995	1133.0736100000001	1164.93396	691.3895299999999	1112.9227300000002	939.3671899999999	658.1239599999999	1078.8634	830.4730799999999	684.10205	1043.00903	557.0360699999999	625.83453	972.6692500000001	518.8248299999999	584.935	1147.76038	528.4687499999999	648.4978	1180.75134	543.9078999999999	568.39056	1205.6702900000003	1808.5717799999998	487.0357099999999	1225.0598100000002	1631.0357699999997	491.5701899999999	1074.8262900000002	1886.69763	487.6758999999999	1007.0440100000002	1672.48291	502.9249599999999	1015.7367600000002	1763.32532	576.4971899999999	1279.1807900000001	2062.93213	417.3936799999999	1256.8751200000002	2048.48462	574.5308799999999	1134.1770000000001	2006.82764	424.8644399999999	1118.7399900000003	2006.85107	532.4517199999999	1110.9447000000002	1873.9196799999997	345.2711799999999	1069.8315400000001	1656.5571299999997	266.7927599999999	1050.5078100000003	1559.07202	263.8148199999999	1050.6351300000001	1391.31409	250.89856999999992	1176.1427000000003	1295.7585399999998	266.71883999999994	1045.6347700000001	1287.3633999999997	206.5540499999999	1130.9561800000001	1229.1528299999998	226.1023099999999	1124.3206800000003	1871.62109	639.4409199999999	1102.7421900000002	1760.16199	717.5347899999999	1053.2326700000003	1565.48914	730.9245599999999	1050.5538300000003	1489.06555	726.5731799999999	1243.0118400000001	1333.36108	765.1384899999999	1106.8581500000003	1294.97168	800.6384299999999	1145.5144000000003	1263.81396	793.6278699999999
920	7.658	1205.3206800000003	1372.6414799999998	386.76430999999997	1214.9285900000002	1371.74744	651.6784699999998	1042.8363000000002	1452.92798	439.5779699999999	1050.0011000000002	1456.30334	580.4464699999999	1117.1241500000003	1083.1406299999999	358.0599399999999	1103.6561300000003	932.6613799999999	392.13228999999995	1059.02771	699.8073099999999	392.02443999999997	1025.12891	572.1093099999999	426.91570999999993	967.7871100000001	560.7628199999999	473.19271999999995	1120.31335	525.1778599999999	402.79143999999997	1163.79565	545.8188499999999	488.73375999999996	1133.5323500000002	1165.01367	691.5153799999999	1113.1788300000003	939.2586699999999	658.0662799999999	1079.20776	830.4809599999999	684.16516	1043.10315	557.0543799999999	625.88416	972.6692500000001	518.8248299999999	584.935	1147.72693	528.4173599999999	648.46399	1180.72327	543.8044999999998	568.47534	1205.8743900000002	1808.4843799999999	486.8126499999999	1226.0155000000002	1631.3112799999997	491.38164999999987	1076.0589600000003	1885.94641	488.24383999999986	1006.9252900000002	1672.29871	503.05291999999986	1016.5349700000003	1763.20093	576.6502099999999	1278.6389200000003	2063.9458	416.9797099999999	1256.9704600000002	2049.31152	574.4013099999999	1133.6723600000003	2007.18384	424.4651199999999	1118.7325400000002	2007.02271	532.3543699999999	1111.0018300000002	1873.9283399999997	345.3671899999999	1070.5454100000002	1656.4454299999998	266.9137599999999	1051.9661900000003	1559.07007	263.8382599999999	1052.1499000000001	1390.52649	251.4824099999999	1178.7071500000002	1296.5566399999998	267.20376999999996	1047.8558300000002	1287.0571299999997	206.83033999999992	1133.6088900000002	1229.5054899999998	226.4695399999999	1124.9522700000002	1871.62402	639.4496499999999	1104.0009800000003	1760.02551	717.7959599999999	1054.7023900000002	1565.04187	731.0900299999998	1052.6099900000002	1489.31262	726.6054699999999	1245.3232400000002	1333.69031	765.1245699999998	1109.5543200000002	1294.79883	800.9949999999999	1147.3206800000003	1263.75098	793.7316899999998
921	7.667	1205.8728000000003	1372.6314699999998	386.93380999999994	1215.3835400000003	1371.59277	651.8211099999999	1043.5946000000001	1452.66003	439.8771099999999	1050.9902300000003	1457.1897	580.5174599999999	1117.4521500000003	1083.0721399999998	358.12139999999994	1103.8059100000003	932.6677899999999	392.3122599999999	1059.01953	699.8984399999999	392.08394999999996	1025.15613	572.1666899999999	426.9375299999999	967.5595100000002	560.9105799999999	473.2122499999999	1120.32898	525.1895099999999	402.76610999999997	1163.84473	545.8931299999999	488.71013999999997	1133.7990700000003	1164.88086	691.6113299999998	1113.5344200000002	939.0648799999999	658.1094399999998	1079.48669	830.4136999999998	684.25458	1043.26331	557.0845899999999	625.89056	972.6692500000001	518.8248299999999	584.935	1147.80432	528.4940199999999	648.49231	1180.66772	543.7609899999999	568.42188	1205.9558100000002	1808.3896499999998	486.6412699999999	1226.6049800000003	1631.4210199999998	491.2635199999999	1076.5491900000002	1885.67395	488.5476099999999	1007.5015900000002	1672.11597	503.1452599999999	1017.3762800000002	1763.07751	576.7464599999998	1277.8721900000003	2064.79956	416.5426899999999	1256.5698200000002	2050.20801	574.1834099999999	1133.0445600000003	2007.24829	423.9792799999999	1118.3934300000003	2007.06213	532.0954599999999	1111.1159700000003	1873.9766799999998	345.3268099999999	1071.5534700000003	1656.3441199999997	267.1096499999999	1052.8287400000002	1558.98608	263.7919899999999	1053.9962200000002	1390.39429	251.8034399999999	1181.1488000000002	1297.2440199999999	267.4863899999999	1050.1707800000001	1286.7276599999998	207.0976599999999	1136.5419900000002	1229.7088599999997	226.89882999999992	1125.7817400000001	1871.68066	639.5148899999999	1104.9865700000003	1759.93237	717.6316499999999	1056.5177000000003	1564.87024	731.3099999999998	1054.3634000000002	1489.22827	727.0774499999999	1247.1959200000001	1334.05054	765.0978399999999	1111.7298600000001	1294.67102	801.1876199999999	1149.8138400000003	1263.72144	793.8173199999999
